<?xml version="1.0" encoding="UTF-8" standalone="no"?>
<!DOCTYPE svg PUBLIC "-//W3C//DTD SVG 1.1//EN"
 "http://www.w3.org/Graphics/SVG/1.1/DTD/svg11.dtd">
<!-- Generated by graphviz version 2.40.1 (20161225.0304)
 -->
<!-- Title: dependencies Pages: 1 -->
<svg width="2515pt" height="287pt"
 viewBox="0.00 0.00 2515.00 287.00" xmlns="http://www.w3.org/2000/svg" xmlns:xlink="http://www.w3.org/1999/xlink">
<g id="graph0" class="graph" transform="scale(1 1) rotate(0) translate(4 283)">
<title>dependencies</title>
<polygon fill="#ffffff" stroke="transparent" points="-4,4 -4,-283 2511,-283 2511,4 -4,4"/>
<text text-anchor="start" x="1232.5091" y="-42.4" font-family="sans-serif" font-weight="bold" font-size="14.00" fill="#000000">Legend</text>
<polygon fill="#ffffb3" stroke="transparent" points="1019.5,-10 1019.5,-30 1039.5,-30 1039.5,-10 1019.5,-10"/>
<text text-anchor="start" x="1043.129" y="-15.4" font-family="sans-serif" font-size="14.00" fill="#000000"> &#160;Declarations</text>
<polygon fill="#8dd3c7" stroke="transparent" points="1132.5,-10 1132.5,-30 1152.5,-30 1152.5,-10 1132.5,-10"/>
<text text-anchor="start" x="1156.2251" y="-15.4" font-family="sans-serif" font-size="14.00" fill="#000000"> &#160;Module</text>
<polygon fill="#80b1d3" stroke="transparent" points="1218.5,-10 1218.5,-30 1238.5,-30 1238.5,-10 1218.5,-10"/>
<text text-anchor="start" x="1242.2812" y="-15.4" font-family="sans-serif" font-size="14.00" fill="#000000"> &#160;Bootstrap</text>
<polygon fill="#fdb462" stroke="transparent" points="1315.5,-10 1315.5,-30 1335.5,-30 1335.5,-10 1315.5,-10"/>
<text text-anchor="start" x="1339.1732" y="-15.4" font-family="sans-serif" font-size="14.00" fill="#000000"> &#160;Providers</text>
<polygon fill="#fb8072" stroke="transparent" points="1411.5,-10 1411.5,-30 1431.5,-30 1431.5,-10 1411.5,-10"/>
<text text-anchor="start" x="1435.2258" y="-15.4" font-family="sans-serif" font-size="14.00" fill="#000000"> &#160;Exports</text>
<g id="clust1" class="cluster">
<title>cluster_AcercadePageModule</title>
<polygon fill="none" stroke="#000000" stroke-dasharray="1,5" points="8,-70 8,-198 164,-198 164,-70 8,-70"/>
</g>
<g id="clust2" class="cluster">
<title>cluster_AcercadePageModule_declarations</title>
<polygon fill="none" stroke="#000000" points="37,-78 37,-130 149,-130 149,-78 37,-78"/>
</g>
<g id="clust8" class="cluster">
<title>cluster_AppModule</title>
<polygon fill="none" stroke="#000000" stroke-dasharray="1,5" points="172,-70 172,-271 1469,-271 1469,-70 172,-70"/>
</g>
<g id="clust9" class="cluster">
<title>cluster_AppModule_declarations</title>
<polygon fill="none" stroke="#000000" points="1123,-78 1123,-130 1461,-130 1461,-78 1123,-78"/>
</g>
<g id="clust14" class="cluster">
<title>cluster_AppModule_imports</title>
<polygon fill="none" stroke="#000000" points="971,-78 971,-130 1115,-130 1115,-78 971,-78"/>
</g>
<g id="clust16" class="cluster">
<title>cluster_AppModule_bootstrap</title>
<polygon fill="none" stroke="#000000" points="796,-211 796,-263 920,-263 920,-211 796,-211"/>
</g>
<g id="clust17" class="cluster">
<title>cluster_AppModule_providers</title>
<polygon fill="none" stroke="#000000" points="180,-78 180,-130 963,-130 963,-78 180,-78"/>
</g>
<g id="clust24" class="cluster">
<title>cluster_ModalFavPageModule</title>
<polygon fill="none" stroke="#000000" stroke-dasharray="1,5" points="1477,-146 1477,-198 1637,-198 1637,-146 1477,-146"/>
</g>
<g id="clust31" class="cluster">
<title>cluster_ModalPageModule</title>
<polygon fill="none" stroke="#000000" stroke-dasharray="1,5" points="1645,-146 1645,-198 1785,-198 1785,-146 1645,-146"/>
</g>
<g id="clust38" class="cluster">
<title>cluster_Tab1PageModule</title>
<polygon fill="none" stroke="#000000" stroke-dasharray="1,5" points="1793,-70 1793,-198 1925,-198 1925,-70 1793,-70"/>
</g>
<g id="clust39" class="cluster">
<title>cluster_Tab1PageModule_declarations</title>
<polygon fill="none" stroke="#000000" points="1815,-78 1815,-130 1903,-130 1903,-78 1815,-78"/>
</g>
<g id="clust45" class="cluster">
<title>cluster_Tab2PageModule</title>
<polygon fill="none" stroke="#000000" stroke-dasharray="1,5" points="2227,-70 2227,-198 2359,-198 2359,-70 2227,-70"/>
</g>
<g id="clust46" class="cluster">
<title>cluster_Tab2PageModule_declarations</title>
<polygon fill="none" stroke="#000000" points="2249,-78 2249,-130 2337,-130 2337,-78 2249,-78"/>
</g>
<g id="clust52" class="cluster">
<title>cluster_Tab3PageModule</title>
<polygon fill="none" stroke="#000000" stroke-dasharray="1,5" points="2367,-70 2367,-198 2499,-198 2499,-70 2367,-70"/>
</g>
<g id="clust53" class="cluster">
<title>cluster_Tab3PageModule_declarations</title>
<polygon fill="none" stroke="#000000" points="2389,-78 2389,-130 2477,-130 2477,-78 2389,-78"/>
</g>
<g id="clust59" class="cluster">
<title>cluster_TabsPageModule</title>
<polygon fill="none" stroke="#000000" stroke-dasharray="1,5" points="1933,-138 1933,-263 2219,-263 2219,-138 1933,-138"/>
</g>
<g id="clust60" class="cluster">
<title>cluster_TabsPageModule_declarations</title>
<polygon fill="none" stroke="#000000" points="2125,-146 2125,-198 2211,-198 2211,-146 2125,-146"/>
</g>
<g id="clust62" class="cluster">
<title>cluster_TabsPageModule_imports</title>
<polygon fill="none" stroke="#000000" points="1941,-146 1941,-198 2117,-198 2117,-146 1941,-146"/>
</g>
<!-- AcercadePage -->
<g id="node1" class="node">
<title>AcercadePage</title>
<polygon fill="#ffffb3" stroke="#000000" points="141.052,-122 44.948,-122 44.948,-86 141.052,-86 141.052,-122"/>
<text text-anchor="middle" x="93" y="-99.8" font-family="Times,serif" font-size="14.00" fill="#000000">AcercadePage</text>
</g>
<!-- AcercadePageModule -->
<g id="node2" class="node">
<title>AcercadePageModule</title>
<polygon fill="#8dd3c7" stroke="#000000" points="155.6024,-190 152.6024,-194 131.6024,-194 128.6024,-190 16.3976,-190 16.3976,-154 155.6024,-154 155.6024,-190"/>
<text text-anchor="middle" x="86" y="-167.8" font-family="Times,serif" font-size="14.00" fill="#000000">AcercadePageModule</text>
</g>
<!-- AcercadePage&#45;&gt;AcercadePageModule -->
<g id="edge1" class="edge">
<title>AcercadePage&#45;&gt;AcercadePageModule</title>
<path fill="none" stroke="#000000" d="M93,-122.2228C93,-122.2228 93,-143.7269 93,-143.7269"/>
<polygon fill="#000000" stroke="#000000" points="89.5001,-143.7269 93,-153.7269 96.5001,-143.727 89.5001,-143.7269"/>
</g>
<!-- AppModule -->
<g id="node6" class="node">
<title>AppModule</title>
<polygon fill="#8dd3c7" stroke="#000000" points="899.6571,-190 896.6571,-194 875.6571,-194 872.6571,-190 816.3429,-190 816.3429,-154 899.6571,-154 899.6571,-190"/>
<text text-anchor="middle" x="858" y="-167.8" font-family="Times,serif" font-size="14.00" fill="#000000">AppModule</text>
</g>
<!-- AcercadePage&#45;&gt;AppModule -->
<g id="edge2" class="edge">
<title>AcercadePage&#45;&gt;AppModule</title>
<path fill="none" stroke="#000000" d="M141.1302,-104C157.5438,-104 171.8359,-104 171.8359,-104 171.8359,-104 171.8359,-183 171.8359,-183 171.8359,-183 806.1103,-183 806.1103,-183"/>
<polygon fill="#000000" stroke="#000000" points="806.1103,-186.5001 816.1103,-183 806.1102,-179.5001 806.1103,-186.5001"/>
</g>
<!-- AppComponent -->
<g id="node3" class="node">
<title>AppComponent</title>
<polygon fill="#ffffb3" stroke="#000000" points="1236.9399,-122 1131.0601,-122 1131.0601,-86 1236.9399,-86 1236.9399,-122"/>
<text text-anchor="middle" x="1184" y="-99.8" font-family="Times,serif" font-size="14.00" fill="#000000">AppComponent</text>
</g>
<!-- AppComponent&#45;&gt;AppModule -->
<g id="edge3" class="edge">
<title>AppComponent&#45;&gt;AppModule</title>
<path fill="none" stroke="#000000" d="M1184,-122.2228C1184,-142.3652 1184,-172 1184,-172 1184,-172 909.9514,-172 909.9514,-172"/>
<polygon fill="#000000" stroke="#000000" points="909.9514,-168.5001 899.9514,-172 909.9514,-175.5001 909.9514,-168.5001"/>
</g>
<!-- ModalFavPage -->
<g id="node4" class="node">
<title>ModalFavPage</title>
<polygon fill="#ffffb3" stroke="#000000" points="1355.2591,-122 1254.7409,-122 1254.7409,-86 1355.2591,-86 1355.2591,-122"/>
<text text-anchor="middle" x="1305" y="-99.8" font-family="Times,serif" font-size="14.00" fill="#000000">ModalFavPage</text>
</g>
<!-- ModalFavPage&#45;&gt;AppModule -->
<g id="edge4" class="edge">
<title>ModalFavPage&#45;&gt;AppModule</title>
<path fill="none" stroke="#000000" d="M1288.2069,-122.2921C1288.2069,-144.2057 1288.2069,-178 1288.2069,-178 1288.2069,-178 910.0333,-178 910.0333,-178"/>
<polygon fill="#000000" stroke="#000000" points="910.0334,-174.5001 900.0333,-178 910.0333,-181.5001 910.0334,-174.5001"/>
</g>
<!-- ModalFavPageModule -->
<g id="node13" class="node">
<title>ModalFavPageModule</title>
<polygon fill="#8dd3c7" stroke="#000000" points="1629.3089,-190 1626.3089,-194 1605.3089,-194 1602.3089,-190 1484.6911,-190 1484.6911,-154 1629.3089,-154 1629.3089,-190"/>
<text text-anchor="middle" x="1557" y="-167.8" font-family="Times,serif" font-size="14.00" fill="#000000">ModalFavPageModule</text>
</g>
<!-- ModalFavPage&#45;&gt;ModalFavPageModule -->
<g id="edge12" class="edge">
<title>ModalFavPage&#45;&gt;ModalFavPageModule</title>
<path fill="none" stroke="#000000" d="M1321.7931,-122.027C1321.7931,-138.3976 1321.7931,-160 1321.7931,-160 1321.7931,-160 1474.8317,-160 1474.8317,-160"/>
<polygon fill="#000000" stroke="#000000" points="1474.8318,-163.5001 1484.8317,-160 1474.8317,-156.5001 1474.8318,-163.5001"/>
</g>
<!-- ModalPage -->
<g id="node5" class="node">
<title>ModalPage</title>
<polygon fill="#ffffb3" stroke="#000000" points="1452.762,-122 1373.238,-122 1373.238,-86 1452.762,-86 1452.762,-122"/>
<text text-anchor="middle" x="1413" y="-99.8" font-family="Times,serif" font-size="14.00" fill="#000000">ModalPage</text>
</g>
<!-- ModalPage&#45;&gt;AppModule -->
<g id="edge5" class="edge">
<title>ModalPage&#45;&gt;AppModule</title>
<path fill="none" stroke="#000000" d="M1413,-122.1532C1413,-145.7566 1413,-184 1413,-184 1413,-184 909.7152,-184 909.7152,-184"/>
<polygon fill="#000000" stroke="#000000" points="909.7152,-180.5001 899.7152,-184 909.7152,-187.5001 909.7152,-180.5001"/>
</g>
<!-- ModalPageModule -->
<g id="node14" class="node">
<title>ModalPageModule</title>
<polygon fill="#8dd3c7" stroke="#000000" points="1776.8118,-190 1773.8118,-194 1752.8118,-194 1749.8118,-190 1653.1882,-190 1653.1882,-154 1776.8118,-154 1776.8118,-190"/>
<text text-anchor="middle" x="1715" y="-167.8" font-family="Times,serif" font-size="14.00" fill="#000000">ModalPageModule</text>
</g>
<!-- ModalPage&#45;&gt;ModalPageModule -->
<g id="edge13" class="edge">
<title>ModalPage&#45;&gt;ModalPageModule</title>
<path fill="none" stroke="#000000" d="M1452.7918,-104C1534.7978,-104 1715,-104 1715,-104 1715,-104 1715,-143.7772 1715,-143.7772"/>
<polygon fill="#000000" stroke="#000000" points="1711.5001,-143.7772 1715,-153.7772 1718.5001,-143.7773 1711.5001,-143.7772"/>
</g>
<!-- AppComponent  -->
<g id="node8" class="node">
<title>AppComponent </title>
<polygon fill="#80b1d3" stroke="#000000" points="912.439,-255 803.561,-255 803.561,-219 912.439,-219 912.439,-255"/>
<text text-anchor="middle" x="858" y="-232.8" font-family="Times,serif" font-size="14.00" fill="#000000">AppComponent </text>
</g>
<!-- AppModule&#45;&gt;AppComponent  -->
<g id="edge7" class="edge">
<title>AppModule&#45;&gt;AppComponent </title>
<path fill="none" stroke="#000000" stroke-dasharray="1,5" d="M858,-190.1061C858,-190.1061 858,-208.991 858,-208.991"/>
<polygon fill="#000000" stroke="#000000" points="854.5001,-208.9909 858,-218.991 861.5001,-208.991 854.5001,-208.9909"/>
</g>
<!-- AppRoutingModule -->
<g id="node7" class="node">
<title>AppRoutingModule</title>
<polygon fill="#8dd3c7" stroke="#000000" points="1107.2744,-122 1104.2744,-126 1083.2744,-126 1080.2744,-122 978.7256,-122 978.7256,-86 1107.2744,-86 1107.2744,-122"/>
<text text-anchor="middle" x="1043" y="-99.8" font-family="Times,serif" font-size="14.00" fill="#000000">AppRoutingModule</text>
</g>
<!-- AppRoutingModule&#45;&gt;AppModule -->
<g id="edge6" class="edge">
<title>AppRoutingModule&#45;&gt;AppModule</title>
<path fill="none" stroke="#000000" d="M1043,-122.2667C1043,-140.5552 1043,-166 1043,-166 1043,-166 909.9794,-166 909.9794,-166"/>
<polygon fill="#000000" stroke="#000000" points="909.9794,-162.5001 899.9794,-166 909.9793,-169.5001 909.9794,-162.5001"/>
</g>
<!-- AuthenticationService -->
<g id="node9" class="node">
<title>AuthenticationService</title>
<ellipse fill="#fdb462" stroke="#000000" cx="858" cy="-104" rx="97.2683" ry="18"/>
<text text-anchor="middle" x="858" y="-99.8" font-family="Times,serif" font-size="14.00" fill="#000000">AuthenticationService</text>
</g>
<!-- AuthenticationService&#45;&gt;AppModule -->
<g id="edge8" class="edge">
<title>AuthenticationService&#45;&gt;AppModule</title>
<path fill="none" stroke="#000000" d="M858,-122.2228C858,-122.2228 858,-143.7269 858,-143.7269"/>
<polygon fill="#000000" stroke="#000000" points="854.5001,-143.7269 858,-153.7269 861.5001,-143.727 854.5001,-143.7269"/>
</g>
<!-- BackbuttonService -->
<g id="node10" class="node">
<title>BackbuttonService</title>
<ellipse fill="#fdb462" stroke="#000000" cx="658" cy="-104" rx="84.5305" ry="18"/>
<text text-anchor="middle" x="658" y="-99.8" font-family="Times,serif" font-size="14.00" fill="#000000">BackbuttonService</text>
</g>
<!-- BackbuttonService&#45;&gt;AppModule -->
<g id="edge9" class="edge">
<title>BackbuttonService&#45;&gt;AppModule</title>
<path fill="none" stroke="#000000" d="M658,-122.0336C658,-139.0597 658,-162 658,-162 658,-162 806.0734,-162 806.0734,-162"/>
<polygon fill="#000000" stroke="#000000" points="806.0735,-165.5001 816.0734,-162 806.0734,-158.5001 806.0735,-165.5001"/>
</g>
<!-- NetworkService -->
<g id="node11" class="node">
<title>NetworkService</title>
<ellipse fill="#fdb462" stroke="#000000" cx="482" cy="-104" rx="73.5541" ry="18"/>
<text text-anchor="middle" x="482" y="-99.8" font-family="Times,serif" font-size="14.00" fill="#000000">NetworkService</text>
</g>
<!-- NetworkService&#45;&gt;AppModule -->
<g id="edge10" class="edge">
<title>NetworkService&#45;&gt;AppModule</title>
<path fill="none" stroke="#000000" d="M482,-122.1061C482,-141.3391 482,-169 482,-169 482,-169 806.3248,-169 806.3248,-169"/>
<polygon fill="#000000" stroke="#000000" points="806.3248,-172.5001 816.3248,-169 806.3248,-165.5001 806.3248,-172.5001"/>
</g>
<!-- ThemeSwitcherService -->
<g id="node12" class="node">
<title>ThemeSwitcherService</title>
<ellipse fill="#fdb462" stroke="#000000" cx="289" cy="-104" rx="101.2582" ry="18"/>
<text text-anchor="middle" x="289" y="-99.8" font-family="Times,serif" font-size="14.00" fill="#000000">ThemeSwitcherService</text>
</g>
<!-- ThemeSwitcherService&#45;&gt;AppModule -->
<g id="edge11" class="edge">
<title>ThemeSwitcherService&#45;&gt;AppModule</title>
<path fill="none" stroke="#000000" d="M289,-122.1686C289,-143.498 289,-176 289,-176 289,-176 806.1601,-176 806.1601,-176"/>
<polygon fill="#000000" stroke="#000000" points="806.1601,-179.5001 816.1601,-176 806.16,-172.5001 806.1601,-179.5001"/>
</g>
<!-- Tab1Page -->
<g id="node15" class="node">
<title>Tab1Page</title>
<polygon fill="#ffffb3" stroke="#000000" points="1894.979,-122 1823.021,-122 1823.021,-86 1894.979,-86 1894.979,-122"/>
<text text-anchor="middle" x="1859" y="-99.8" font-family="Times,serif" font-size="14.00" fill="#000000">Tab1Page</text>
</g>
<!-- Tab1PageModule -->
<g id="node16" class="node">
<title>Tab1PageModule</title>
<polygon fill="#8dd3c7" stroke="#000000" points="1916.5298,-190 1913.5298,-194 1892.5298,-194 1889.5298,-190 1801.4702,-190 1801.4702,-154 1916.5298,-154 1916.5298,-190"/>
<text text-anchor="middle" x="1859" y="-167.8" font-family="Times,serif" font-size="14.00" fill="#000000">Tab1PageModule</text>
</g>
<!-- Tab1Page&#45;&gt;Tab1PageModule -->
<g id="edge14" class="edge">
<title>Tab1Page&#45;&gt;Tab1PageModule</title>
<path fill="none" stroke="#000000" d="M1859,-122.2228C1859,-122.2228 1859,-143.7269 1859,-143.7269"/>
<polygon fill="#000000" stroke="#000000" points="1855.5001,-143.7269 1859,-153.7269 1862.5001,-143.727 1855.5001,-143.7269"/>
</g>
<!-- TabsPageModule -->
<g id="node22" class="node">
<title>TabsPageModule</title>
<polygon fill="#8dd3c7" stroke="#000000" points="2210.9734,-255 2207.9734,-259 2186.9734,-259 2183.9734,-255 2097.0266,-255 2097.0266,-219 2210.9734,-219 2210.9734,-255"/>
<text text-anchor="middle" x="2154" y="-232.8" font-family="Times,serif" font-size="14.00" fill="#000000">TabsPageModule</text>
</g>
<!-- Tab1PageModule&#45;&gt;TabsPageModule -->
<g id="edge18" class="edge">
<title>Tab1PageModule&#45;&gt;TabsPageModule</title>
<path fill="none" stroke="#000000" d="M1859,-190.1061C1859,-209.3391 1859,-237 1859,-237 1859,-237 2086.7712,-237 2086.7712,-237"/>
<polygon fill="#000000" stroke="#000000" points="2086.7713,-240.5001 2096.7712,-237 2086.7712,-233.5001 2086.7713,-240.5001"/>
</g>
<!-- Tab2Page -->
<g id="node17" class="node">
<title>Tab2Page</title>
<polygon fill="#ffffb3" stroke="#000000" points="2328.979,-122 2257.021,-122 2257.021,-86 2328.979,-86 2328.979,-122"/>
<text text-anchor="middle" x="2293" y="-99.8" font-family="Times,serif" font-size="14.00" fill="#000000">Tab2Page</text>
</g>
<!-- Tab2PageModule -->
<g id="node18" class="node">
<title>Tab2PageModule</title>
<polygon fill="#8dd3c7" stroke="#000000" points="2350.5298,-190 2347.5298,-194 2326.5298,-194 2323.5298,-190 2235.4702,-190 2235.4702,-154 2350.5298,-154 2350.5298,-190"/>
<text text-anchor="middle" x="2293" y="-167.8" font-family="Times,serif" font-size="14.00" fill="#000000">Tab2PageModule</text>
</g>
<!-- Tab2Page&#45;&gt;Tab2PageModule -->
<g id="edge15" class="edge">
<title>Tab2Page&#45;&gt;Tab2PageModule</title>
<path fill="none" stroke="#000000" d="M2293,-122.2228C2293,-122.2228 2293,-143.7269 2293,-143.7269"/>
<polygon fill="#000000" stroke="#000000" points="2289.5001,-143.7269 2293,-153.7269 2296.5001,-143.727 2289.5001,-143.7269"/>
</g>
<!-- Tab2PageModule&#45;&gt;TabsPageModule -->
<g id="edge19" class="edge">
<title>Tab2PageModule&#45;&gt;TabsPageModule</title>
<path fill="none" stroke="#000000" d="M2235.2264,-172C2219.6876,-172 2207.0993,-172 2207.0993,-172 2207.0993,-172 2207.0993,-208.8939 2207.0993,-208.8939"/>
<polygon fill="#000000" stroke="#000000" points="2203.5993,-208.8938 2207.0993,-218.8939 2210.5993,-208.8939 2203.5993,-208.8938"/>
</g>
<!-- Tab3Page -->
<g id="node19" class="node">
<title>Tab3Page</title>
<polygon fill="#ffffb3" stroke="#000000" points="2468.979,-122 2397.021,-122 2397.021,-86 2468.979,-86 2468.979,-122"/>
<text text-anchor="middle" x="2433" y="-99.8" font-family="Times,serif" font-size="14.00" fill="#000000">Tab3Page</text>
</g>
<!-- Tab3PageModule -->
<g id="node20" class="node">
<title>Tab3PageModule</title>
<polygon fill="#8dd3c7" stroke="#000000" points="2490.5298,-190 2487.5298,-194 2466.5298,-194 2463.5298,-190 2375.4702,-190 2375.4702,-154 2490.5298,-154 2490.5298,-190"/>
<text text-anchor="middle" x="2433" y="-167.8" font-family="Times,serif" font-size="14.00" fill="#000000">Tab3PageModule</text>
</g>
<!-- Tab3Page&#45;&gt;Tab3PageModule -->
<g id="edge16" class="edge">
<title>Tab3Page&#45;&gt;Tab3PageModule</title>
<path fill="none" stroke="#000000" d="M2433,-122.2228C2433,-122.2228 2433,-143.7269 2433,-143.7269"/>
<polygon fill="#000000" stroke="#000000" points="2429.5001,-143.7269 2433,-153.7269 2436.5001,-143.727 2429.5001,-143.7269"/>
</g>
<!-- Tab3PageModule&#45;&gt;TabsPageModule -->
<g id="edge20" class="edge">
<title>Tab3PageModule&#45;&gt;TabsPageModule</title>
<path fill="none" stroke="#000000" d="M2433,-190.1061C2433,-209.3391 2433,-237 2433,-237 2433,-237 2221.1331,-237 2221.1331,-237"/>
<polygon fill="#000000" stroke="#000000" points="2221.1331,-233.5001 2211.1331,-237 2221.133,-240.5001 2221.1331,-233.5001"/>
</g>
<!-- TabsPage -->
<g id="node21" class="node">
<title>TabsPage</title>
<polygon fill="#ffffb3" stroke="#000000" points="2203.4249,-190 2132.5751,-190 2132.5751,-154 2203.4249,-154 2203.4249,-190"/>
<text text-anchor="middle" x="2168" y="-167.8" font-family="Times,serif" font-size="14.00" fill="#000000">TabsPage</text>
</g>
<!-- TabsPage&#45;&gt;TabsPageModule -->
<g id="edge17" class="edge">
<title>TabsPage&#45;&gt;TabsPageModule</title>
<path fill="none" stroke="#000000" d="M2168,-190.1061C2168,-190.1061 2168,-208.991 2168,-208.991"/>
<polygon fill="#000000" stroke="#000000" points="2164.5001,-208.9909 2168,-218.991 2171.5001,-208.991 2164.5001,-208.9909"/>
</g>
<!-- TabsPageRoutingModule -->
<g id="node23" class="node">
<title>TabsPageRoutingModule</title>
<polygon fill="#8dd3c7" stroke="#000000" points="2108.5912,-190 2105.5912,-194 2084.5912,-194 2081.5912,-190 1949.4088,-190 1949.4088,-154 2108.5912,-154 2108.5912,-190"/>
<text text-anchor="middle" x="2029" y="-167.8" font-family="Times,serif" font-size="14.00" fill="#000000">TabsPageRoutingModule</text>
</g>
<!-- TabsPageRoutingModule&#45;&gt;TabsPageModule -->
<g id="edge21" class="edge">
<title>TabsPageRoutingModule&#45;&gt;TabsPageModule</title>
<path fill="none" stroke="#000000" d="M2102.7795,-190.1061C2102.7795,-190.1061 2102.7795,-208.991 2102.7795,-208.991"/>
<polygon fill="#000000" stroke="#000000" points="2099.2795,-208.9909 2102.7795,-218.991 2106.2795,-208.991 2099.2795,-208.9909"/>
</g>
</g>
</svg>
