<?xml version="1.0" encoding="UTF-8" standalone="no"?>
<!DOCTYPE svg PUBLIC "-//W3C//DTD SVG 1.1//EN"
 "http://www.w3.org/Graphics/SVG/1.1/DTD/svg11.dtd">
<!-- Generated by graphviz version 2.40.1 (20161225.0304)
 -->
<!-- Title: dependencies Pages: 1 -->
<svg width="1435pt" height="284pt"
 viewBox="0.00 0.00 1435.00 284.00" xmlns="http://www.w3.org/2000/svg" xmlns:xlink="http://www.w3.org/1999/xlink">
<g id="graph0" class="graph" transform="scale(1 1) rotate(0) translate(4 280)">
<title>dependencies</title>
<polygon fill="#ffffff" stroke="transparent" points="-4,4 -4,-280 1431,-280 1431,4 -4,4"/>
<text text-anchor="start" x="692.5091" y="-42.4" font-family="sans-serif" font-weight="bold" font-size="14.00" fill="#000000">Legend</text>
<polygon fill="#ffffb3" stroke="transparent" points="479.5,-10 479.5,-30 499.5,-30 499.5,-10 479.5,-10"/>
<text text-anchor="start" x="503.129" y="-15.4" font-family="sans-serif" font-size="14.00" fill="#000000"> &#160;Declarations</text>
<polygon fill="#8dd3c7" stroke="transparent" points="592.5,-10 592.5,-30 612.5,-30 612.5,-10 592.5,-10"/>
<text text-anchor="start" x="616.2251" y="-15.4" font-family="sans-serif" font-size="14.00" fill="#000000"> &#160;Module</text>
<polygon fill="#80b1d3" stroke="transparent" points="678.5,-10 678.5,-30 698.5,-30 698.5,-10 678.5,-10"/>
<text text-anchor="start" x="702.2812" y="-15.4" font-family="sans-serif" font-size="14.00" fill="#000000"> &#160;Bootstrap</text>
<polygon fill="#fdb462" stroke="transparent" points="775.5,-10 775.5,-30 795.5,-30 795.5,-10 775.5,-10"/>
<text text-anchor="start" x="799.1732" y="-15.4" font-family="sans-serif" font-size="14.00" fill="#000000"> &#160;Providers</text>
<polygon fill="#fb8072" stroke="transparent" points="871.5,-10 871.5,-30 891.5,-30 891.5,-10 871.5,-10"/>
<text text-anchor="start" x="895.2258" y="-15.4" font-family="sans-serif" font-size="14.00" fill="#000000"> &#160;Exports</text>
<g id="clust1" class="cluster">
<title>cluster_AppModule</title>
<polygon fill="none" stroke="#000000" stroke-dasharray="1,5" points="8,-70 8,-268 1419,-268 1419,-70 8,-70"/>
</g>
<g id="clust2" class="cluster">
<title>cluster_AppModule_declarations</title>
<polygon fill="none" stroke="#000000" points="959,-78 959,-130 1411,-130 1411,-78 959,-78"/>
</g>
<g id="clust7" class="cluster">
<title>cluster_AppModule_imports</title>
<polygon fill="none" stroke="#000000" points="807,-78 807,-130 951,-130 951,-78 807,-78"/>
</g>
<g id="clust9" class="cluster">
<title>cluster_AppModule_bootstrap</title>
<polygon fill="none" stroke="#000000" points="817,-208 817,-260 941,-260 941,-208 817,-208"/>
</g>
<g id="clust10" class="cluster">
<title>cluster_AppModule_providers</title>
<polygon fill="none" stroke="#000000" points="16,-78 16,-130 799,-130 799,-78 16,-78"/>
</g>
<!-- AcercadePage -->
<g id="node1" class="node">
<title>AcercadePage</title>
<polygon fill="#ffffb3" stroke="#000000" points="1403.052,-122 1306.948,-122 1306.948,-86 1403.052,-86 1403.052,-122"/>
<text text-anchor="middle" x="1355" y="-99.8" font-family="Times,serif" font-size="14.00" fill="#000000">AcercadePage</text>
</g>
<!-- AppModule -->
<g id="node5" class="node">
<title>AppModule</title>
<polygon fill="#8dd3c7" stroke="#000000" points="920.6571,-187 917.6571,-191 896.6571,-191 893.6571,-187 837.3429,-187 837.3429,-151 920.6571,-151 920.6571,-187"/>
<text text-anchor="middle" x="879" y="-164.8" font-family="Times,serif" font-size="14.00" fill="#000000">AppModule</text>
</g>
<!-- AcercadePage&#45;&gt;AppModule -->
<g id="edge1" class="edge">
<title>AcercadePage&#45;&gt;AppModule</title>
<path fill="none" stroke="#000000" d="M1355,-122.0109C1355,-144.4852 1355,-180 1355,-180 1355,-180 930.8246,-180 930.8246,-180"/>
<polygon fill="#000000" stroke="#000000" points="930.8247,-176.5001 920.8246,-180 930.8246,-183.5001 930.8247,-176.5001"/>
</g>
<!-- AppComponent -->
<g id="node2" class="node">
<title>AppComponent</title>
<polygon fill="#ffffb3" stroke="#000000" points="1288.9399,-122 1183.0601,-122 1183.0601,-86 1288.9399,-86 1288.9399,-122"/>
<text text-anchor="middle" x="1236" y="-99.8" font-family="Times,serif" font-size="14.00" fill="#000000">AppComponent</text>
</g>
<!-- AppComponent&#45;&gt;AppModule -->
<g id="edge2" class="edge">
<title>AppComponent&#45;&gt;AppModule</title>
<path fill="none" stroke="#000000" d="M1236,-122.1289C1236,-142.5724 1236,-173 1236,-173 1236,-173 931.0022,-173 931.0022,-173"/>
<polygon fill="#000000" stroke="#000000" points="931.0023,-169.5001 921.0022,-173 931.0022,-176.5001 931.0023,-169.5001"/>
</g>
<!-- ModalFavPage -->
<g id="node3" class="node">
<title>ModalFavPage</title>
<polygon fill="#ffffb3" stroke="#000000" points="1165.2591,-122 1064.7409,-122 1064.7409,-86 1165.2591,-86 1165.2591,-122"/>
<text text-anchor="middle" x="1115" y="-99.8" font-family="Times,serif" font-size="14.00" fill="#000000">ModalFavPage</text>
</g>
<!-- ModalFavPage&#45;&gt;AppModule -->
<g id="edge3" class="edge">
<title>ModalFavPage&#45;&gt;AppModule</title>
<path fill="none" stroke="#000000" d="M1115,-122.2667C1115,-140.5552 1115,-166 1115,-166 1115,-166 930.9201,-166 930.9201,-166"/>
<polygon fill="#000000" stroke="#000000" points="930.9202,-162.5001 920.9201,-166 930.9201,-169.5001 930.9202,-162.5001"/>
</g>
<!-- ModalPage -->
<g id="node4" class="node">
<title>ModalPage</title>
<polygon fill="#ffffb3" stroke="#000000" points="1046.762,-122 967.238,-122 967.238,-86 1046.762,-86 1046.762,-122"/>
<text text-anchor="middle" x="1007" y="-99.8" font-family="Times,serif" font-size="14.00" fill="#000000">ModalPage</text>
</g>
<!-- ModalPage&#45;&gt;AppModule -->
<g id="edge4" class="edge">
<title>ModalPage&#45;&gt;AppModule</title>
<path fill="none" stroke="#000000" d="M1007,-122.0091C1007,-138.0494 1007,-159 1007,-159 1007,-159 930.912,-159 930.912,-159"/>
<polygon fill="#000000" stroke="#000000" points="930.912,-155.5001 920.912,-159 930.912,-162.5001 930.912,-155.5001"/>
</g>
<!-- AppComponent  -->
<g id="node7" class="node">
<title>AppComponent </title>
<polygon fill="#80b1d3" stroke="#000000" points="933.439,-252 824.561,-252 824.561,-216 933.439,-216 933.439,-252"/>
<text text-anchor="middle" x="879" y="-229.8" font-family="Times,serif" font-size="14.00" fill="#000000">AppComponent </text>
</g>
<!-- AppModule&#45;&gt;AppComponent  -->
<g id="edge6" class="edge">
<title>AppModule&#45;&gt;AppComponent </title>
<path fill="none" stroke="#000000" stroke-dasharray="1,5" d="M879,-187.1061C879,-187.1061 879,-205.991 879,-205.991"/>
<polygon fill="#000000" stroke="#000000" points="875.5001,-205.9909 879,-215.991 882.5001,-205.991 875.5001,-205.9909"/>
</g>
<!-- AppRoutingModule -->
<g id="node6" class="node">
<title>AppRoutingModule</title>
<polygon fill="#8dd3c7" stroke="#000000" points="943.2744,-122 940.2744,-126 919.2744,-126 916.2744,-122 814.7256,-122 814.7256,-86 943.2744,-86 943.2744,-122"/>
<text text-anchor="middle" x="879" y="-99.8" font-family="Times,serif" font-size="14.00" fill="#000000">AppRoutingModule</text>
</g>
<!-- AppRoutingModule&#45;&gt;AppModule -->
<g id="edge5" class="edge">
<title>AppRoutingModule&#45;&gt;AppModule</title>
<path fill="none" stroke="#000000" d="M879,-122.1061C879,-122.1061 879,-140.991 879,-140.991"/>
<polygon fill="#000000" stroke="#000000" points="875.5001,-140.9909 879,-150.991 882.5001,-140.991 875.5001,-140.9909"/>
</g>
<!-- AuthenticationService -->
<g id="node8" class="node">
<title>AuthenticationService</title>
<ellipse fill="#fdb462" stroke="#000000" cx="694" cy="-104" rx="97.2683" ry="18"/>
<text text-anchor="middle" x="694" y="-99.8" font-family="Times,serif" font-size="14.00" fill="#000000">AuthenticationService</text>
</g>
<!-- AuthenticationService&#45;&gt;AppModule -->
<g id="edge7" class="edge">
<title>AuthenticationService&#45;&gt;AppModule</title>
<path fill="none" stroke="#000000" d="M694,-122.0091C694,-138.0494 694,-159 694,-159 694,-159 827.0206,-159 827.0206,-159"/>
<polygon fill="#000000" stroke="#000000" points="827.0207,-162.5001 837.0206,-159 827.0206,-155.5001 827.0207,-162.5001"/>
</g>
<!-- BackbuttonService -->
<g id="node9" class="node">
<title>BackbuttonService</title>
<ellipse fill="#fdb462" stroke="#000000" cx="494" cy="-104" rx="84.5305" ry="18"/>
<text text-anchor="middle" x="494" y="-99.8" font-family="Times,serif" font-size="14.00" fill="#000000">BackbuttonService</text>
</g>
<!-- BackbuttonService&#45;&gt;AppModule -->
<g id="edge8" class="edge">
<title>BackbuttonService&#45;&gt;AppModule</title>
<path fill="none" stroke="#000000" d="M494,-122.2667C494,-140.5552 494,-166 494,-166 494,-166 827.0654,-166 827.0654,-166"/>
<polygon fill="#000000" stroke="#000000" points="827.0654,-169.5001 837.0654,-166 827.0653,-162.5001 827.0654,-169.5001"/>
</g>
<!-- NetworkService -->
<g id="node10" class="node">
<title>NetworkService</title>
<ellipse fill="#fdb462" stroke="#000000" cx="318" cy="-104" rx="73.5541" ry="18"/>
<text text-anchor="middle" x="318" y="-99.8" font-family="Times,serif" font-size="14.00" fill="#000000">NetworkService</text>
</g>
<!-- NetworkService&#45;&gt;AppModule -->
<g id="edge9" class="edge">
<title>NetworkService&#45;&gt;AppModule</title>
<path fill="none" stroke="#000000" d="M318,-122.1289C318,-142.5724 318,-173 318,-173 318,-173 827.2921,-173 827.2921,-173"/>
<polygon fill="#000000" stroke="#000000" points="827.2922,-176.5001 837.2921,-173 827.2921,-169.5001 827.2922,-176.5001"/>
</g>
<!-- ThemeSwitcherService -->
<g id="node11" class="node">
<title>ThemeSwitcherService</title>
<ellipse fill="#fdb462" stroke="#000000" cx="125" cy="-104" rx="101.2582" ry="18"/>
<text text-anchor="middle" x="125" y="-99.8" font-family="Times,serif" font-size="14.00" fill="#000000">ThemeSwitcherService</text>
</g>
<!-- ThemeSwitcherService&#45;&gt;AppModule -->
<g id="edge10" class="edge">
<title>ThemeSwitcherService&#45;&gt;AppModule</title>
<path fill="none" stroke="#000000" d="M125,-122.0109C125,-144.4852 125,-180 125,-180 125,-180 827.1172,-180 827.1172,-180"/>
<polygon fill="#000000" stroke="#000000" points="827.1173,-183.5001 837.1172,-180 827.1172,-176.5001 827.1173,-183.5001"/>
</g>
</g>
</svg>
